<?xml version="1.0" standalone="no"?>
<svg xmlns:xlink="http://www.w3.org/1999/xlink" id="wave" style="transform:rotate(180deg); transition: 0.3s" viewBox="0 0 1440 100" version="1.1" xmlns="http://www.w3.org/2000/svg"><defs><linearGradient id="sw-gradient-0" x1="0" x2="0" y1="1" y2="0"><stop stop-color="rgba(11.539, 13.448, 14.031, 1)" offset="0%"/><stop stop-color="rgba(35, 105, 140, 1)" offset="100%"/></linearGradient></defs><path style="transform:translate(0, 0px); opacity:1" fill="url(#sw-gradient-0)" d="M0,60L30,53.3C60,47,120,33,180,35C240,37,300,53,360,55C420,57,480,43,540,36.7C600,30,660,30,720,33.3C780,37,840,43,900,51.7C960,60,1020,70,1080,70C1140,70,1200,60,1260,48.3C1320,37,1380,23,1440,30C1500,37,1560,63,1620,63.3C1680,63,1740,37,1800,26.7C1860,17,1920,23,1980,36.7C2040,50,2100,70,2160,80C2220,90,2280,90,2340,80C2400,70,2460,50,2520,38.3C2580,27,2640,23,2700,23.3C2760,23,2820,27,2880,38.3C2940,50,3000,70,3060,70C3120,70,3180,50,3240,41.7C3300,33,3360,37,3420,35C3480,33,3540,27,3600,30C3660,33,3720,47,3780,50C3840,53,3900,47,3960,46.7C4020,47,4080,53,4140,48.3C4200,43,4260,27,4290,18.3L4320,10L4320,100L4290,100C4260,100,4200,100,4140,100C4080,100,4020,100,3960,100C3900,100,3840,100,3780,100C3720,100,3660,100,3600,100C3540,100,3480,100,3420,100C3360,100,3300,100,3240,100C3180,100,3120,100,3060,100C3000,100,2940,100,2880,100C2820,100,2760,100,2700,100C2640,100,2580,100,2520,100C2460,100,2400,100,2340,100C2280,100,2220,100,2160,100C2100,100,2040,100,1980,100C1920,100,1860,100,1800,100C1740,100,1680,100,1620,100C1560,100,1500,100,1440,100C1380,100,1320,100,1260,100C1200,100,1140,100,1080,100C1020,100,960,100,900,100C840,100,780,100,720,100C660,100,600,100,540,100C480,100,420,100,360,100C300,100,240,100,180,100C120,100,60,100,30,100L0,100Z"/></svg>